<svg width="95" height="85" viewBox="0 0 95 85" fill="none" xmlns="http://www.w3.org/2000/svg">
<path d="M27.5 15C31.6421 15 35 11.6421 35 7.5C35 3.35786 31.6421 0 27.5 0C23.3579 0 20 3.35786 20 7.5C20 11.6421 23.3579 15 27.5 15Z" fill="#808080" fill-opacity="0.12"/>
<path d="M47.5 15C51.6421 15 55 11.6421 55 7.5C55 3.35786 51.6421 0 47.5 0C43.3579 0 40 3.35786 40 7.5C40 11.6421 43.3579 15 47.5 15Z" fill="#01796F" fill-opacity="0.4"/>
<path d="M67.5 15C71.6421 15 75 11.6421 75 7.5C75 3.35786 71.6421 0 67.5 0C63.3579 0 60 3.35786 60 7.5C60 11.6421 63.3579 15 67.5 15Z" fill="#01796F" fill-opacity="0.6"/>
<path d="M17.5 32.4C21.6421 32.4 25 29.0422 25 24.9C25 20.7579 21.6421 17.4 17.5 17.4C13.3579 17.4 10 20.7579 10 24.9C10 29.0422 13.3579 32.4 17.5 32.4Z" fill="#808080" fill-opacity="0.12"/>
<path d="M37.5 32.4C41.6421 32.4 45 29.0422 45 24.9C45 20.7579 41.6421 17.4 37.5 17.4C33.3579 17.4 30 20.7579 30 24.9C30 29.0422 33.3579 32.4 37.5 32.4Z" fill="#808080" fill-opacity="0.12"/>
<path d="M57.5 32.4C61.6421 32.4 65 29.0422 65 24.9C65 20.7579 61.6421 17.4 57.5 17.4C53.3579 17.4 50 20.7579 50 24.9C50 29.0422 53.3579 32.4 57.5 32.4Z" fill="#808080" fill-opacity="0.12"/>
<path d="M77.5 32.4C81.6421 32.4 85 29.0422 85 24.9C85 20.7579 81.6421 17.4 77.5 17.4C73.3579 17.4 70 20.7579 70 24.9C70 29.0422 73.3579 32.4 77.5 32.4Z" fill="#01796F" fill-opacity="0.75"/>
<path d="M7.5 49.8C11.6421 49.8 15 46.4421 15 42.3C15 38.1579 11.6421 34.8 7.5 34.8C3.35786 34.8 0 38.1579 0 42.3C0 46.4421 3.35786 49.8 7.5 49.8Z" fill="#01796F"/>
<path d="M27.5 49.8C31.6421 49.8 35 46.4421 35 42.3C35 38.1579 31.6421 34.8 27.5 34.8C23.3579 34.8 20 38.1579 20 42.3C20 46.4421 23.3579 49.8 27.5 49.8Z" fill="#808080" fill-opacity="0.12"/>
<path d="M47.5 49.8C51.6421 49.8 55 46.4421 55 42.3C55 38.1579 51.6421 34.8 47.5 34.8C43.3579 34.8 40 38.1579 40 42.3C40 46.4421 43.3579 49.8 47.5 49.8Z" fill="#808080" fill-opacity="0.12"/>
<path d="M67.5 49.8C71.6421 49.8 75 46.4421 75 42.3C75 38.1579 71.6421 34.8 67.5 34.8C63.3579 34.8 60 38.1579 60 42.3C60 46.4421 63.3579 49.8 67.5 49.8Z" fill="#808080" fill-opacity="0.12"/>
<path d="M87.5 49.8C91.6421 49.8 95 46.4421 95 42.3C95 38.1579 91.6421 34.8 87.5 34.8C83.3579 34.8 80 38.1579 80 42.3C80 46.4421 83.3579 49.8 87.5 49.8Z" fill="#01796F"/>
<path d="M17.5 67.2C21.6421 67.2 25 63.8421 25 59.7C25 55.5579 21.6421 52.2 17.5 52.2C13.3579 52.2 10 55.5579 10 59.7C10 63.8421 13.3579 67.2 17.5 67.2Z" fill="#01796F" fill-opacity="0.75"/>
<path d="M37.5 67.2C41.6421 67.2 45 63.8421 45 59.7C45 55.5579 41.6421 52.2 37.5 52.2C33.3579 52.2 30 55.5579 30 59.7C30 63.8421 33.3579 67.2 37.5 67.2Z" fill="#808080" fill-opacity="0.12"/>
<path d="M57.5 67.2C61.6421 67.2 65 63.8421 65 59.7C65 55.5579 61.6421 52.2 57.5 52.2C53.3579 52.2 50 55.5579 50 59.7C50 63.8421 53.3579 67.2 57.5 67.2Z" fill="#808080" fill-opacity="0.12"/>
<path d="M77.5 67.2C81.6421 67.2 85 63.8421 85 59.7C85 55.5579 81.6421 52.2 77.5 52.2C73.3579 52.2 70 55.5579 70 59.7C70 63.8421 73.3579 67.2 77.5 67.2Z" fill="#808080" fill-opacity="0.12"/>
<path d="M27.5 84.6C31.6421 84.6 35 81.2421 35 77.1C35 72.9578 31.6421 69.6 27.5 69.6C23.3579 69.6 20 72.9578 20 77.1C20 81.2421 23.3579 84.6 27.5 84.6Z" fill="#01796F" fill-opacity="0.6"/>
<path d="M47.5 84.6C51.6421 84.6 55 81.2421 55 77.1C55 72.9578 51.6421 69.6 47.5 69.6C43.3579 69.6 40 72.9578 40 77.1C40 81.2421 43.3579 84.6 47.5 84.6Z" fill="#01796F" fill-opacity="0.4"/>
<path d="M67.5 84.6C71.6421 84.6 75 81.2421 75 77.1C75 72.9578 71.6421 69.6 67.5 69.6C63.3579 69.6 60 72.9578 60 77.1C60 81.2421 63.3579 84.6 67.5 84.6Z" fill="#808080" fill-opacity="0.12"/>
</svg>
